<mxfile host="app.diagrams.net" modified="2023-10-09T16:31:36.638Z" agent="Mozilla/5.0 (Windows NT 10.0; Win64; x64) AppleWebKit/537.36 (KHTML, like Gecko) Chrome/117.0.0.0 Safari/537.36" version="22.0.4" etag="cqugVCIg5aTMQpnxw6FB" type="github">
  <diagram name="Pagina-1" id="PeRzWWAR64-kBi8eqata">
    <mxGraphModel>
      <root>
        <mxCell id="0" />
        <mxCell id="1" parent="0" />
      </root>
    </mxGraphModel>
  </diagram>
</mxfile>
